# xmcd
#
# Track frame offsets:
#	150
#	13607
#	26921
#	40846
#	52874
#	71362
#	87072
#	101955
#	116954
#	128388
#	143852
#	158937
#
# Disc length: 2379 seconds
#
# Revision: 1
# Processed by: cddbd v1.4PL0 Copyright (c) Steve Scherf et al.
# Submitted via: dBpowerAMP V4.0
#
DISCID=9b09490c
DTITLE=Gene Watson - From My Heart
DYEAR=1900
DGENRE=Country
TTITLE0=Next To Nothin'
TTITLE1=She Had Me
TTITLE2=The Man An' Me And You
TTITLE3=Rose In The Sand
TTITLE4=When You're Not Looking Back
TTITLE5=This Circus That You Call A Rodeo
TTITLE6=The Truth Is I Lied
TTITLE7=Would It Be Cheatin'
TTITLE8=Drivin' Me Sane
TTITLE9=Take Me As I Am Or Let Me Go
TTITLE10=No Trash In My Trailer
TTITLE11=I Never Go Around Mirrors
EXTD=
EXTT0=
EXTT1=
EXTT2=
EXTT3=
EXTT4=
EXTT5=
EXTT6=
EXTT7=
EXTT8=
EXTT9=
EXTT10=
EXTT11=
PLAYORDER=
